<svg width="28" height="28" viewBox="0 0 28 28" fill="none" xmlns="http://www.w3.org/2000/svg">
<path fill-rule="evenodd" clip-rule="evenodd" d="M19.4783 8.47908C19.4783 11.4996 17.0218 13.9565 14 13.9565C10.9788 13.9565 8.52173 11.4996 8.52173 8.47908C8.52173 5.45762 10.9788 3 14 3C17.0218 3 19.4783 5.45762 19.4783 8.47908ZM16.7391 8.47867C16.7391 9.98891 15.5109 11.2174 14 11.2174C12.4894 11.2174 11.2609 9.98891 11.2609 8.47867C11.2609 6.96794 12.4894 5.73913 14 5.73913C15.5109 5.73913 16.7391 6.96794 16.7391 8.47867Z" fill="#1A1A1A"/>
<path d="M16.1633 18.2463C17.2516 17.9944 18.3012 17.5569 19.268 16.94C19.9996 16.4713 20.22 15.4888 19.7591 14.7454C19.2984 14.0005 18.332 13.7762 17.599 14.2449C15.409 15.6441 12.5893 15.6438 10.4005 14.2449C9.66759 13.7762 8.70084 14.0005 8.24113 14.7454C7.78014 15.4894 7.99992 16.4713 8.73155 16.94C9.6983 17.5563 10.7479 17.9944 11.8362 18.2463L8.84703 21.2834C8.23601 21.9049 8.23601 22.9124 8.84767 23.5339C9.15382 23.8443 9.55435 23.9997 9.95487 23.9997C10.356 23.9997 10.7572 23.8443 11.0633 23.5339L13.9995 20.5495L16.9381 23.5339C17.5491 24.1554 18.5405 24.1554 19.1522 23.5339C19.7645 22.9124 19.7645 21.9042 19.1522 21.2834L16.1633 18.2463Z" fill="#1A1A1A"/>
</svg>
